<mxfile host="app.diagrams.net" agent="Mozilla/5.0 (Macintosh; Intel Mac OS X 10_15_7) AppleWebKit/537.36 (KHTML, like Gecko) Chrome/119.0.0.0 Safari/537.36" version="26.0.6">
  <diagram id="Ht1M8jgEwFfnCIfOTk4-" name="Page-1">
    <mxGraphModel dx="1709" dy="1213" grid="1" gridSize="10" guides="1" tooltips="1" connect="1" arrows="1" fold="1" page="1" pageScale="1" pageWidth="1169" pageHeight="827" math="0" shadow="0">
      <root>
        <mxCell id="0" />
        <mxCell id="1" parent="0" />
        <mxCell id="zL8s4Qje6X8DDjhotla--44" style="edgeStyle=orthogonalEdgeStyle;rounded=0;orthogonalLoop=1;jettySize=auto;html=1;" edge="1" parent="1" source="zL8s4Qje6X8DDjhotla--7" target="zL8s4Qje6X8DDjhotla--33">
          <mxGeometry relative="1" as="geometry">
            <Array as="points">
              <mxPoint x="990" y="320" />
              <mxPoint x="990" y="333" />
            </Array>
          </mxGeometry>
        </mxCell>
        <mxCell id="zL8s4Qje6X8DDjhotla--7" value="Amazon Transcribe" style="sketch=0;outlineConnect=0;fontColor=#232F3E;gradientColor=none;strokeColor=#ffffff;fillColor=#232F3E;dashed=0;verticalLabelPosition=middle;verticalAlign=bottom;align=center;html=1;whiteSpace=wrap;fontSize=10;fontStyle=1;spacing=3;shape=mxgraph.aws4.productIcon;prIcon=mxgraph.aws4.transcribe;" vertex="1" parent="1">
          <mxGeometry x="860" y="265" width="80" height="110" as="geometry" />
        </mxCell>
        <mxCell id="zL8s4Qje6X8DDjhotla--18" style="edgeStyle=orthogonalEdgeStyle;rounded=0;orthogonalLoop=1;jettySize=auto;html=1;" edge="1" parent="1" source="zL8s4Qje6X8DDjhotla--8" target="zL8s4Qje6X8DDjhotla--9">
          <mxGeometry relative="1" as="geometry">
            <Array as="points">
              <mxPoint x="520" y="300" />
              <mxPoint x="520" y="300" />
            </Array>
          </mxGeometry>
        </mxCell>
        <mxCell id="zL8s4Qje6X8DDjhotla--19" value="Upload media to S3" style="edgeLabel;html=1;align=center;verticalAlign=middle;resizable=0;points=[];" vertex="1" connectable="0" parent="zL8s4Qje6X8DDjhotla--18">
          <mxGeometry x="0.1714" y="3" relative="1" as="geometry">
            <mxPoint x="-22" y="3" as="offset" />
          </mxGeometry>
        </mxCell>
        <mxCell id="zL8s4Qje6X8DDjhotla--8" value="AWS Lambda Fuction 1" style="sketch=0;outlineConnect=0;fontColor=#232F3E;gradientColor=none;strokeColor=#ffffff;fillColor=#232F3E;dashed=0;verticalLabelPosition=middle;verticalAlign=bottom;align=center;html=1;whiteSpace=wrap;fontSize=10;fontStyle=1;spacing=3;shape=mxgraph.aws4.productIcon;prIcon=mxgraph.aws4.lambda;" vertex="1" parent="1">
          <mxGeometry x="360" y="255" width="80" height="115" as="geometry" />
        </mxCell>
        <mxCell id="zL8s4Qje6X8DDjhotla--23" value="S3 Upload calls Lambda" style="edgeStyle=orthogonalEdgeStyle;rounded=0;orthogonalLoop=1;jettySize=auto;html=1;" edge="1" parent="1" source="zL8s4Qje6X8DDjhotla--9" target="zL8s4Qje6X8DDjhotla--22">
          <mxGeometry x="0.6756" y="7" relative="1" as="geometry">
            <mxPoint as="offset" />
          </mxGeometry>
        </mxCell>
        <mxCell id="zL8s4Qje6X8DDjhotla--9" value="Amazon S3" style="sketch=0;outlineConnect=0;fontColor=#232F3E;gradientColor=none;strokeColor=#ffffff;fillColor=#232F3E;dashed=0;verticalLabelPosition=middle;verticalAlign=bottom;align=center;html=1;whiteSpace=wrap;fontSize=10;fontStyle=1;spacing=3;shape=mxgraph.aws4.productIcon;prIcon=mxgraph.aws4.s3;" vertex="1" parent="1">
          <mxGeometry x="530" y="270" width="80" height="100" as="geometry" />
        </mxCell>
        <mxCell id="zL8s4Qje6X8DDjhotla--46" style="edgeStyle=orthogonalEdgeStyle;rounded=0;orthogonalLoop=1;jettySize=auto;html=1;" edge="1" parent="1" source="zL8s4Qje6X8DDjhotla--10">
          <mxGeometry relative="1" as="geometry">
            <mxPoint x="1370" y="319" as="targetPoint" />
          </mxGeometry>
        </mxCell>
        <mxCell id="zL8s4Qje6X8DDjhotla--10" value="" style="sketch=0;points=[[0,0,0],[0.25,0,0],[0.5,0,0],[0.75,0,0],[1,0,0],[0,1,0],[0.25,1,0],[0.5,1,0],[0.75,1,0],[1,1,0],[0,0.25,0],[0,0.5,0],[0,0.75,0],[1,0.25,0],[1,0.5,0],[1,0.75,0]];outlineConnect=0;fontColor=#232F3E;fillColor=#01A88D;strokeColor=#ffffff;dashed=0;verticalLabelPosition=bottom;verticalAlign=top;align=center;html=1;fontSize=12;fontStyle=0;aspect=fixed;shape=mxgraph.aws4.resourceIcon;resIcon=mxgraph.aws4.bedrock;" vertex="1" parent="1">
          <mxGeometry x="1200" y="280" width="78" height="78" as="geometry" />
        </mxCell>
        <mxCell id="zL8s4Qje6X8DDjhotla--13" value="" style="strokeWidth=2;html=1;shape=mxgraph.flowchart.database;whiteSpace=wrap;" vertex="1" parent="1">
          <mxGeometry x="555" y="160" width="60" height="60" as="geometry" />
        </mxCell>
        <mxCell id="zL8s4Qje6X8DDjhotla--16" style="edgeStyle=orthogonalEdgeStyle;rounded=0;orthogonalLoop=1;jettySize=auto;html=1;" edge="1" parent="1" source="zL8s4Qje6X8DDjhotla--15" target="zL8s4Qje6X8DDjhotla--8">
          <mxGeometry relative="1" as="geometry" />
        </mxCell>
        <mxCell id="zL8s4Qje6X8DDjhotla--17" value="User uploads media" style="edgeLabel;html=1;align=center;verticalAlign=middle;resizable=0;points=[];" vertex="1" connectable="0" parent="zL8s4Qje6X8DDjhotla--16">
          <mxGeometry x="-0.2" y="-2" relative="1" as="geometry">
            <mxPoint as="offset" />
          </mxGeometry>
        </mxCell>
        <mxCell id="zL8s4Qje6X8DDjhotla--15" value="" style="points=[];aspect=fixed;html=1;align=center;shadow=0;dashed=0;fillColor=#FF6A00;strokeColor=none;shape=mxgraph.alibaba_cloud.user;" vertex="1" parent="1">
          <mxGeometry x="110" y="270" width="90" height="90" as="geometry" />
        </mxCell>
        <mxCell id="zL8s4Qje6X8DDjhotla--20" style="edgeStyle=orthogonalEdgeStyle;rounded=0;orthogonalLoop=1;jettySize=auto;html=1;entryX=0.083;entryY=0.667;entryDx=0;entryDy=0;entryPerimeter=0;" edge="1" parent="1" target="zL8s4Qje6X8DDjhotla--13">
          <mxGeometry relative="1" as="geometry">
            <mxPoint x="369.9988235294117" y="263.5" as="sourcePoint" />
            <mxPoint x="535" y="196" as="targetPoint" />
            <Array as="points">
              <mxPoint x="370" y="200" />
            </Array>
          </mxGeometry>
        </mxCell>
        <mxCell id="zL8s4Qje6X8DDjhotla--21" value="Saved Data about&lt;div&gt;storage/status in DB&lt;/div&gt;" style="edgeLabel;html=1;align=center;verticalAlign=middle;resizable=0;points=[];" vertex="1" connectable="0" parent="zL8s4Qje6X8DDjhotla--20">
          <mxGeometry x="-0.2021" y="3" relative="1" as="geometry">
            <mxPoint x="32" as="offset" />
          </mxGeometry>
        </mxCell>
        <mxCell id="zL8s4Qje6X8DDjhotla--42" style="edgeStyle=orthogonalEdgeStyle;rounded=0;orthogonalLoop=1;jettySize=auto;html=1;" edge="1" parent="1" source="zL8s4Qje6X8DDjhotla--22">
          <mxGeometry relative="1" as="geometry">
            <mxPoint x="860" y="310" as="targetPoint" />
          </mxGeometry>
        </mxCell>
        <mxCell id="zL8s4Qje6X8DDjhotla--22" value="AWS Lambda Fuction 2" style="sketch=0;outlineConnect=0;fontColor=#232F3E;gradientColor=none;strokeColor=#ffffff;fillColor=#232F3E;dashed=0;verticalLabelPosition=middle;verticalAlign=bottom;align=center;html=1;whiteSpace=wrap;fontSize=10;fontStyle=1;spacing=3;shape=mxgraph.aws4.productIcon;prIcon=mxgraph.aws4.lambda;" vertex="1" parent="1">
          <mxGeometry x="730" y="263.5" width="70" height="106.5" as="geometry" />
        </mxCell>
        <mxCell id="zL8s4Qje6X8DDjhotla--33" value="AWS Lambda Fuction 2" style="sketch=0;outlineConnect=0;fontColor=#232F3E;gradientColor=none;strokeColor=#ffffff;fillColor=#232F3E;dashed=0;verticalLabelPosition=middle;verticalAlign=bottom;align=center;html=1;whiteSpace=wrap;fontSize=10;fontStyle=1;spacing=3;shape=mxgraph.aws4.productIcon;prIcon=mxgraph.aws4.lambda;" vertex="1" parent="1">
          <mxGeometry x="1040" y="280" width="70" height="106.5" as="geometry" />
        </mxCell>
        <mxCell id="zL8s4Qje6X8DDjhotla--38" style="edgeStyle=orthogonalEdgeStyle;rounded=0;orthogonalLoop=1;jettySize=auto;html=1;entryX=1;entryY=0.5;entryDx=0;entryDy=0;entryPerimeter=0;startArrow=none;startFill=0;" edge="1" parent="1" source="zL8s4Qje6X8DDjhotla--22" target="zL8s4Qje6X8DDjhotla--13">
          <mxGeometry relative="1" as="geometry">
            <Array as="points">
              <mxPoint x="765" y="190" />
            </Array>
          </mxGeometry>
        </mxCell>
        <mxCell id="zL8s4Qje6X8DDjhotla--39" value="Update to in progress" style="edgeLabel;html=1;align=center;verticalAlign=middle;resizable=0;points=[];" vertex="1" connectable="0" parent="zL8s4Qje6X8DDjhotla--38">
          <mxGeometry x="0.2386" y="3" relative="1" as="geometry">
            <mxPoint as="offset" />
          </mxGeometry>
        </mxCell>
        <mxCell id="zL8s4Qje6X8DDjhotla--45" style="edgeStyle=orthogonalEdgeStyle;rounded=0;orthogonalLoop=1;jettySize=auto;html=1;entryX=0;entryY=0.75;entryDx=0;entryDy=0;entryPerimeter=0;" edge="1" parent="1" source="zL8s4Qje6X8DDjhotla--33" target="zL8s4Qje6X8DDjhotla--10">
          <mxGeometry relative="1" as="geometry" />
        </mxCell>
        <mxCell id="zL8s4Qje6X8DDjhotla--49" style="edgeStyle=orthogonalEdgeStyle;rounded=0;orthogonalLoop=1;jettySize=auto;html=1;" edge="1" parent="1" source="zL8s4Qje6X8DDjhotla--47" target="zL8s4Qje6X8DDjhotla--48">
          <mxGeometry relative="1" as="geometry" />
        </mxCell>
        <mxCell id="zL8s4Qje6X8DDjhotla--47" value="Amazon S3" style="sketch=0;outlineConnect=0;fontColor=#232F3E;gradientColor=none;strokeColor=#ffffff;fillColor=#232F3E;dashed=0;verticalLabelPosition=middle;verticalAlign=bottom;align=center;html=1;whiteSpace=wrap;fontSize=10;fontStyle=1;spacing=3;shape=mxgraph.aws4.productIcon;prIcon=mxgraph.aws4.s3;" vertex="1" parent="1">
          <mxGeometry x="1370" y="275" width="80" height="100" as="geometry" />
        </mxCell>
        <mxCell id="zL8s4Qje6X8DDjhotla--48" value="AWS Lambda Fuction 2" style="sketch=0;outlineConnect=0;fontColor=#232F3E;gradientColor=none;strokeColor=#ffffff;fillColor=#232F3E;dashed=0;verticalLabelPosition=middle;verticalAlign=bottom;align=center;html=1;whiteSpace=wrap;fontSize=10;fontStyle=1;spacing=3;shape=mxgraph.aws4.productIcon;prIcon=mxgraph.aws4.lambda;" vertex="1" parent="1">
          <mxGeometry x="1550" y="270" width="70" height="106.5" as="geometry" />
        </mxCell>
        <mxCell id="zL8s4Qje6X8DDjhotla--50" style="edgeStyle=orthogonalEdgeStyle;rounded=0;orthogonalLoop=1;jettySize=auto;html=1;entryX=1;entryY=0.15;entryDx=0;entryDy=0;entryPerimeter=0;" edge="1" parent="1" source="zL8s4Qje6X8DDjhotla--48" target="zL8s4Qje6X8DDjhotla--13">
          <mxGeometry relative="1" as="geometry">
            <Array as="points">
              <mxPoint x="1585" y="170" />
              <mxPoint x="1083" y="170" />
            </Array>
          </mxGeometry>
        </mxCell>
        <mxCell id="zL8s4Qje6X8DDjhotla--51" value="Updates DB with S3 Storage for Trancription and Summary, sets status to complete.." style="edgeLabel;html=1;align=center;verticalAlign=middle;resizable=0;points=[];" vertex="1" connectable="0" parent="zL8s4Qje6X8DDjhotla--50">
          <mxGeometry x="0.1791" y="-2" relative="1" as="geometry">
            <mxPoint as="offset" />
          </mxGeometry>
        </mxCell>
      </root>
    </mxGraphModel>
  </diagram>
</mxfile>
